<?xml version="1.0" encoding="UTF-8"?>
<!DOCTYPE svg  PUBLIC '-//W3C//DTD SVG 1.1//EN'  'http://www.w3.org/Graphics/SVG/1.1/DTD/svg11.dtd'>
<svg enable-background="new 0 0 512 512" version="1.1" viewBox="0 0 512 512" xml:space="preserve" xmlns="http://www.w3.org/2000/svg">
<circle cx="256.72" cy="257" r="250"/>
<circle cx="259.71" cy="229.36" r="127.97" fill="none"/>
<text transform="matrix(.9999 .0119 -.0119 .9999 243.41 101.16)" fill="#FFFFFF" font-family="'MyriadPro-Regular'" font-size="66.187"><tspan x="0" y="0">B</tspan><tspan x="33.235" y="-0.403" rotate="15.059">h</tspan><tspan x="66.266" y="8.477" rotate="29.186">a</tspan><tspan x="92.176" y="22.639" rotate="42.251">v</tspan><tspan x="113.998" y="43.187" rotate="52.017">i</tspan><tspan x="123.107" y="53.546" rotate="61.68">k</tspan><tspan x="136.493" y="79.545" rotate="70.997"> </tspan><tspan x="140.659" y="91.664" rotate="76.139"> </tspan><tspan x="144.098" y="103.91" rotate="84.594">J</tspan><tspan x="146.049" y="126.756" rotate="92.879">i</tspan></text>
	<path d="m202.62 236.35v-6.204h114.23v6.204h-9.763c-10.739 0-18.637 2.757-23.678 8.268-3.092 3.446-4.638 11.992-4.638 25.637v110.19c0 16.952-2.197 30.701-6.59 41.245-4.394 10.546-11.962 19.744-22.7 27.599-10.741 7.859-23.761 11.785-39.056 11.785-12.204 0-21.846-2.584-28.924-7.752s-10.618-11.062-10.618-17.676c0-5.514 1.625-9.647 4.881-12.405 4.395-3.444 9.437-5.169 15.134-5.169 4.23 0 8.015 1.171 11.351 3.515 3.333 2.345 7.524 8.546 12.57 18.608 3.09 6.065 6.996 9.094 11.718 9.094 3.417 0 6.67-1.823 9.762-5.478 3.089-3.65 4.638-10.163 4.638-19.537v-154.02c0-11.439-0.816-19.021-2.44-22.743-1.303-2.754-4.069-5.097-8.298-7.029-5.698-2.754-11.636-4.133-17.82-4.133h-9.762z" fill="#fff"/>
	<path d="m232.54 269.07 54.125 0.736c-2e-3 0.15 0.334 0.296 0.334 0.45v16.853c6-2.883 11.012-6.756 15.912-11.656 11.891-11.89 17.803-26.268 17.803-43.139 0-16.869-5.961-31.25-17.85-43.14-11.891-11.891-26.28-17.836-43.149-17.836s-31.254 5.946-43.145 17.836c-11.89 11.89-17.836 26.271-17.836 43.14 0 16.871 5.396 31.25 17.286 43.139 5.059 5.059 9.979 9.029 15.979 11.937v-17.133c0-0.414 0.543-0.79 0.541-1.187z" fill="none"/>
	<path d="m366.42 232.31c0-29.471-10.421-54.624-31.252-75.457-20.832-20.833-45.851-31.25-75.323-31.25-22.969 0-42.842 6.301-60.842 18.902v-64.509h-46v152.31c0 29.472 9.87 54.625 30.703 75.457 14.255 14.259 32.297 23.632 48.297 28.131v-48.512c-6-2.907-10.922-6.878-15.98-11.937-11.891-11.89-17.562-26.268-17.562-43.139 0-16.869 6.083-31.25 17.974-43.14 11.89-11.891 26.338-17.836 43.207-17.836 16.87 0 31.286 5.946 43.177 17.836s17.85 26.271 17.85 43.14c0 16.871-5.871 31.25-17.761 43.139-4.899 4.9-9.904 8.773-15.904 11.656v48.643c17-4.552 34.116-13.868 48.229-27.981 20.83-20.832 31.187-45.985 31.187-75.457z" fill="#fff"/>
	<path d="m202.62 236.35v-6.204h114.23v6.204h-9.763c-10.739 0-18.637 2.757-23.678 8.268-3.092 3.446-4.638 11.992-4.638 25.637v110.19c0 16.952-2.197 30.701-6.59 41.245-4.394 10.546-11.962 19.744-22.7 27.599-10.741 7.859-23.761 11.785-39.056 11.785-12.204 0-21.846-2.584-28.924-7.752s-10.618-11.062-10.618-17.676c0-5.514 1.625-9.647 4.881-12.405 4.395-3.444 9.437-5.169 15.134-5.169 4.23 0 8.015 1.171 11.351 3.515 3.333 2.345 7.524 8.546 12.57 18.608 3.09 6.065 6.996 9.094 11.718 9.094 3.417 0 6.67-1.823 9.762-5.478 3.089-3.65 4.638-10.163 4.638-19.537v-154.02c0-11.439-0.816-19.021-2.44-22.743-1.303-2.754-4.069-5.097-8.298-7.029-5.698-2.754-11.636-4.133-17.82-4.133h-9.762z" fill="none"/>
<text transform="translate(594.78 300.48)" font-family="'AndThenItEnds'" font-size="226.41">B</text>
<text transform="matrix(1.1806 0 0 1 602.61 385.25)" font-family="'Aparajita'" font-size="307.06">J</text>
</svg>
