<svg xmlns="http://www.w3.org/2000/svg" viewBox="0 0 486.39 486.39"><path d="M430.15 135.25C416.866 39.127 321.08-9.82 218.87 1.64c-80.802 9.059-161.36 74.388-164.7 167.8-2.037 57.029 14.136 99.801 68.399 111.84 23.499-41.586-7.569-50.676-12.433-80.802-19.912-123.12 142.03-207.2 226.84-121.17 58.732 59.583 20.033 242.77-74.57 223.71-90.621-18.179 44.383-164-27.937-192.61-58.793-23.286-90.013 71.135-62.137 118.07-16.355 80.711-51.557 156.71-37.3 257.91 46.207-33.561 61.802-97.734 74.57-164.7 23.225 14.136 35.659 28.758 65.268 31.038 109.2 8.48 170.27-109.01 155.28-217.48z" fill="#f26a26"/></svg>